<svg id="logo-alerte4sud" xmlns="http://www.w3.org/2000/svg" xmlns:xlink="http://www.w3.org/1999/xlink" width="162.638" height="59.158" viewBox="0 0 162.638 59.158">
  <defs>
    <linearGradient id="linear-gradient" y1="0.636" x2="1" y2="0.622" gradientUnits="objectBoundingBox">
      <stop offset="0" stop-color="#ff3c38"/>
      <stop offset="1" stop-color="#ff3c38" stop-opacity="0"/>
    </linearGradient>
  </defs>
  <g id="logo-alert4sud" transform="translate(29.245 0)">
    <path id="Tracé_2181" data-name="Tracé 2181" d="M1.257.7V-28.353h5.81v24.1h5.975V.7ZM14.693.7V-28.353h11.62v5.612H20.6v5.662h5.48v5.464H20.6v6.652h6.091V.7ZM28.607.7V-28.353h8.913a4.917,4.917,0,0,1,3.367,1.015A5.09,5.09,0,0,1,42.415-24.5a20.8,20.8,0,0,1,.388,4.283,9.889,9.889,0,0,1-.6,3.8,3.482,3.482,0,0,1-2.27,1.964,2.6,2.6,0,0,1,1.923,1.362,6.144,6.144,0,0,1,.553,2.8V.7H36.679V-10.675q0-1.271-.52-1.576a3.456,3.456,0,0,0-1.675-.305V.7Zm5.909-18.289h1.4q1.2,0,1.2-2.624a5.947,5.947,0,0,0-.264-2.228,1,1,0,0,0-.99-.528H34.517ZM47.21.7V-22.774H43.76v-5.579H56.47v5.579H53.02V.7ZM58.087.7V-28.353h11.62v5.612H64v5.662h5.48v5.464H64v6.652h6.091V.7Zm21.54.017V-3.891H71.011V-8.43l5.5-19.939h9.045V-8.744H87.1v4.853H85.553V.714ZM76.194-8.744h3.433V-23.385ZM95.605.962q-3.978,0-5.736-1.981T88.112-7.324v-2.839h5.744v3.631a3.37,3.37,0,0,0,.305,1.576,1.1,1.1,0,0,0,1.065.569,1.217,1.217,0,0,0,1.1-.462,2.853,2.853,0,0,0,.305-1.519A8.063,8.063,0,0,0,96.365-8.6a5.012,5.012,0,0,0-.916-1.717,19.2,19.2,0,0,0-1.807-1.906L91.033-14.7a8.455,8.455,0,0,1-2.922-6.305,8.285,8.285,0,0,1,1.725-5.662,6.318,6.318,0,0,1,4.993-1.948q3.994,0,5.67,2.129t1.675,6.47H96.266v-2a1.232,1.232,0,0,0-.338-.924,1.256,1.256,0,0,0-.916-.33A1.245,1.245,0,0,0,94-22.881a1.512,1.512,0,0,0-.322,1,3.151,3.151,0,0,0,.33,1.32,5.855,5.855,0,0,0,1.3,1.634l3.351,3.219a19.345,19.345,0,0,1,1.849,2.022,8.783,8.783,0,0,1,1.354,2.476,10.152,10.152,0,0,1,.512,3.442,11.675,11.675,0,0,1-1.51,6.413Q99.352.962,95.605.962Zm15.417,0q-3.631,0-5.348-2.038t-1.717-6V-28.353H109.6V-7.308a11.383,11.383,0,0,0,.083,1.395,2.425,2.425,0,0,0,.38,1.1,1.081,1.081,0,0,0,.957.429A1.108,1.108,0,0,0,112-4.807a2.316,2.316,0,0,0,.371-1.1,12.86,12.86,0,0,0,.074-1.4V-28.353h5.645V-7.077q0,3.961-1.717,6T111.022.962ZM120.315.7V-28.353H128.3a6.065,6.065,0,0,1,4.721,1.741,7.324,7.324,0,0,1,1.585,5.092v13.6a11.773,11.773,0,0,1-1.444,6.371Q131.721.7,128.106.7Zm5.843-5.133h1.007a1.394,1.394,0,0,0,1.6-1.552V-20.975a3.006,3.006,0,0,0-.388-1.873,2.164,2.164,0,0,0-1.576-.421h-.644Z" transform="translate(-1.257 28.617)" fill="#fff"/>
  </g>
  <path id="Tracé_2654" data-name="Tracé 2654" d="M-9189.314-294.972h-6.4l-8.525-41.545-3.787,17.549h-13.156v-6.99h7.513l6.081-28.172h6.871l9.261,45.128,4.853-12.764h128.06v6.99h-123.237Z" transform="translate(9221.184 354.13)" fill="url(#linear-gradient)"/>
</svg>
